<?xml version="1.0" encoding="UTF-8" standalone="no"?>
<!-- Created with Inkscape (http://www.inkscape.org/) -->

<svg
   width="1000.0001"
   height="1000.0001"
   viewBox="0 0 264.58335 264.58335"
   version="1.1"
   id="svg1"
   xmlns="http://www.w3.org/2000/svg"
   xmlns:svg="http://www.w3.org/2000/svg">
  <defs
     id="defs1" />
  <g
     id="g23"
     style="display:inline">
    <g
       id="g10"
       transform="translate(-3.2826542,8.9649239)"
       style="display:inline;stroke:#131386;stroke-opacity:1">
      <path
         style="baseline-shift:baseline;display:inline;overflow:visible;opacity:1;vector-effect:none;fill:#131386;stroke:none;stroke-linecap:round;stroke-linejoin:round;paint-order:fill markers stroke;enable-background:accumulate;stop-color:#000000;stop-opacity:1"
         d="m 201.00781,77.478516 c -1.02006,-0.04676 -2.04012,0.119312 -2.99219,0.488281 l 0.24219,-0.08203 -24.91797,7.613281 a 3.50035,3.50035 0 0 0 -0.24218,0.08398 c -11.07269,4.29555 -18.3867,14.976812 -18.38672,26.853522 v 33.69336 l -35.6211,-41.90235 c -3.28697,-3.8666 -8.60965,-9.25042 -13.82617,-11.859376 C 94.099472,86.783593 75.504872,79.752938 75.460937,79.736328 c -8.05e-4,-3.12e-4 -0.0011,3.12e-4 -0.002,0 -1.137879,-0.440958 -2.076129,-0.462972 -2.669922,-0.490234 -4.268511,-0.196375 -7.330521,3.449653 -7.330078,7.339843 V 156.2793 c 7.3e-5,13.58168 8.361207,25.79287 21.023438,30.70507 a 3.50035,3.50035 0 0 0 0.21875,0.0762 l 27.517575,8.62304 a 3.50035,3.50035 0 0 0 4.54492,-3.33984 v -41.39258 c 6.23379,7.10757 21.95253,25.03301 31.5625,35.96875 4.04385,4.60173 10.68084,6.44661 16.51953,4.61719 l 19.92969,-6.24414 a 3.50035,3.50035 0 0 0 0.21875,-0.0762 c 12.66241,-4.9123 21.02361,-17.12516 21.02344,-30.70703 V 84.816406 c -1e-4,-3.889499 -3.12266,-7.158619 -7.00781,-7.33789 z m -0.32226,6.99414 a 3.50035,3.50035 0 0 0 0.002,0 c 0.22042,0.01011 0.33007,0.123112 0.33008,0.34375 v 69.693364 c 1.3e-4,10.69751 -6.54561,20.27059 -16.50781,24.1582 l -19.75586,6.18945 c -2.54272,0.7967 -7.4161,-0.56281 -9.16993,-2.55859 -11.46953,-13.05184 -37.6875,-42.94922 -37.6875,-42.94922 a 3.50035,3.50035 0 0 0 -6.13281,2.30859 v 45.91992 L 88.955078,180.43164 C 78.999938,176.54102 72.459042,166.97226 72.458984,156.2793 V 86.583984 c -2.5e-5,-0.220623 0.169854,-0.338248 0.0078,-0.345703 0.474971,0.02181 0.60401,0.07819 0.46289,0.02344 a 3.50035,3.50035 0 0 0 0.02344,0.0098 c 0,0 18.698292,7.113368 29.179686,12.355469 3.17146,1.58615 8.80858,6.82204 11.62305,10.13282 l 41.78906,49.1582 a 3.50035,3.50035 0 0 0 6.16602,-2.26758 v -43.21484 c 1e-5,-8.98797 5.49381,-17.026851 13.85937,-20.300787 l 24.73242,-7.556641 a 3.50035,3.50035 0 0 0 0.24219,-0.08398 c 0.0449,-0.01741 0.0926,-0.0237 0.14063,-0.02148 z"
         id="path10"
         transform="translate(-3.1821429,-2.6517857)" />
      <path
         style="baseline-shift:baseline;display:inline;overflow:visible;opacity:1;vector-effect:none;fill:#131386;stroke:none;stroke-linecap:round;stroke-linejoin:round;paint-order:fill markers stroke;enable-background:accumulate;stop-color:#000000;stop-opacity:1"
         d="m 134.00781,44.001953 c -11.97125,0 -21.75195,9.780702 -21.75195,21.751953 0,11.971251 9.7807,21.75 21.75195,21.75 11.97125,0 21.75,-9.778749 21.75,-21.75 0,-11.971251 -9.77875,-21.751953 -21.75,-21.751953 z m 0,7 c 8.18817,0 14.75,6.563783 14.75,14.751953 0,8.188171 -6.56183,14.75 -14.75,14.75 -8.18817,0 -14.75195,-6.561829 -14.75195,-14.75 0,-8.18817 6.56378,-14.751953 14.75195,-14.751953 z"
         id="circle10" />
    </g>
  </g>
</svg>
